<svg width="1920" height="1210" viewBox="0 0 1920 1210" xmlns="http://www.w3.org/2000/svg" xmlns:xlink="http://www.w3.org/1999/xlink">
    <defs>
        <path id="a" d="M0 0h1920v1210H0z"/>
    </defs>
    <g fill="none" fill-rule="evenodd">
        <mask id="b" fill="#fff">
            <use xlink:href="#a"/>
        </mask>
        <g mask="url(#b)" fill="#00FF7E" stroke="#231F20" stroke-linecap="round" stroke-linejoin="round" stroke-width="2.8">
            <path d="M865.025 238.565a3.58 3.58 0 0 0 2.14-1.69l11.87-21.24a1.78 1.78 0 0 0-2-2.58l-83.81 23.74a3.53 3.53 0 0 0-2.14 1.68l-11.87 21.24a1.79 1.79 0 0 0 2 2.59l83.81-23.74zM882.535 300.385a3.58 3.58 0 0 0 2.14-1.69l11.87-21.24a1.78 1.78 0 0 0-2-2.58l-83.81 23.74a3.51 3.51 0 0 0-2.14 1.69l-11.87 21.23a1.79 1.79 0 0 0 2 2.59l83.81-23.74zM891.605 264.635a1.78 1.78 0 0 0 .39-3.27l-21.25-11.85a3.56 3.56 0 0 0-2.71-.32l-83.81 23.74a1.78 1.78 0 0 0-.38 3.27l21.25 11.85a3.53 3.53 0 0 0 2.7.32l83.81-23.74z"/>
        </g>
    </g>
</svg>
